<svg width="250" height="80" viewBox="0 0 250 80" fill="none" xmlns="http://www.w3.org/2000/svg">
<path d="M32.8947 1.11111C36.3126 3.37673 36.3126 3.37673 39.8848 6.25C57.1406 19.5779 78.784 29.4882 105.263 32.2222C137.709 33.3984 164.891 28.3692 189.987 13.8021C196.437 9.56053 201.942 4.90881 207.237 0C209.408 0.366667 211.579 0.733333 213.816 1.11111C213.816 8.09016 207.567 11.7528 200.658 16.6667C175.462 31.7747 144.267 40.3023 110.564 39.3056C83.3602 37.954 56.363 30.2061 36.1842 17.7778C34.8251 16.9484 33.4661 16.1192 32.0659 15.2648C20.6959 7.99233 20.6959 7.99233 19.7368 2.22222C24.836 0.130749 27.3062 -0.394867 32.8947 1.11111Z" fill="white"/>
<path d="M32.8947 1.11111C36.3126 3.37673 36.3126 3.37673 39.8848 6.25C57.1406 19.5779 78.784 29.4882 105.263 32.2222C137.709 33.3984 164.891 28.3692 189.987 13.8021C196.437 9.56053 201.942 4.90881 207.237 0C209.408 0.366667 211.579 0.733333 213.816 1.11111C213.816 8.09016 207.567 11.7528 200.658 16.6667C175.462 31.7747 144.267 40.3023 110.564 39.3056C83.3602 37.954 56.363 30.2061 36.1842 17.7778C34.8251 16.9484 33.4661 16.1192 32.0659 15.2648C20.6959 7.99233 20.6959 7.99233 19.7368 2.22222C24.836 0.130749 27.3062 -0.394867 32.8947 1.11111Z" fill="#3C4B22"/>
<path d="M213.648 49.3067C213.648 47.7778 214.306 46.5689 215.622 45.68C216.938 44.7911 218.727 44.3467 220.99 44.3467H247.043C247.411 44.7378 247.727 45.2533 247.99 45.8933C248.306 46.5333 248.464 47.2089 248.464 47.92C248.464 49.2711 248.016 50.2311 247.122 50.8C246.28 51.3689 245.148 51.6533 243.727 51.6533H227.069V56.6133H244.832C245.201 57.0045 245.516 57.52 245.78 58.16C246.095 58.7645 246.253 59.4222 246.253 60.1333C246.253 61.4845 245.832 62.4445 244.99 63.0134C244.148 63.5822 243.016 63.8667 241.595 63.8667H227.069V69.4667H247.359C247.727 69.8578 248.043 70.3733 248.306 71.0133C248.622 71.6533 248.78 72.3289 248.78 73.04C248.78 74.3911 248.332 75.3689 247.437 75.9733C246.595 76.5422 245.464 76.8267 244.043 76.8267H220.99C218.727 76.8267 216.938 76.3822 215.622 75.4933C214.306 74.6045 213.648 73.3956 213.648 71.8667V49.3067Z" fill="#2E3A1B"/>
<path d="M203.617 64.72C203.617 66.64 203.117 68.4 202.117 70C201.169 71.5644 199.775 72.9156 197.933 74.0533C196.09 75.1556 193.854 76.0089 191.222 76.6133C188.59 77.2178 185.617 77.52 182.301 77.52C178.985 77.52 176.012 77.2178 173.38 76.6133C170.748 76.0089 168.512 75.1556 166.669 74.0533C164.827 72.9156 163.406 71.5644 162.406 70C161.459 68.4 160.985 66.64 160.985 64.72V44.3467C161.564 44.2756 162.485 44.1867 163.748 44.08C165.012 43.9378 166.222 43.8667 167.38 43.8667C168.59 43.8667 169.643 43.9378 170.538 44.08C171.485 44.1867 172.275 44.4 172.906 44.72C173.538 45.04 174.012 45.4844 174.327 46.0533C174.643 46.6222 174.801 47.3689 174.801 48.2933V64.56C174.801 66.2667 175.485 67.6 176.854 68.56C178.275 69.52 180.09 70 182.301 70C184.564 70 186.38 69.52 187.748 68.56C189.117 67.6 189.801 66.2667 189.801 64.56V44.3467C190.38 44.2756 191.301 44.1867 192.564 44.08C193.827 43.9378 195.038 43.8667 196.196 43.8667C197.406 43.8667 198.459 43.9378 199.354 44.08C200.301 44.1867 201.09 44.4 201.722 44.72C202.354 45.04 202.827 45.4844 203.143 46.0533C203.459 46.6222 203.617 47.3689 203.617 48.2933V64.72Z" fill="#2E3A1B"/>
<path d="M153.653 70.1689C153.653 71.2711 153.364 72.0889 152.785 72.6222C152.206 73.1556 151.285 73.6711 150.022 74.1689C149.285 74.4533 148.364 74.7378 147.259 75.0222C146.153 75.2711 144.943 75.4845 143.627 75.6622C142.311 75.8756 140.917 76.0356 139.443 76.1422C138.022 76.2489 136.601 76.3022 135.18 76.3022C131.39 76.3022 127.838 75.9645 124.522 75.2889C121.206 74.5778 118.311 73.5289 115.838 72.1422C113.417 70.72 111.496 68.96 110.075 66.8622C108.653 64.7645 107.943 62.3289 107.943 59.5556C107.943 56.64 108.706 54.0978 110.232 51.9289C111.811 49.76 113.864 47.9645 116.39 46.5422C118.969 45.0845 121.89 44 125.153 43.2889C128.469 42.5778 131.864 42.2222 135.338 42.2222C140.338 42.2222 144.285 42.7733 147.18 43.8756C150.127 44.9422 151.601 46.3467 151.601 48.0889C151.601 49.0133 151.259 49.8133 150.575 50.4889C149.89 51.1645 149.101 51.6978 148.206 52.0889C146.89 51.5556 145.232 51.04 143.232 50.5422C141.285 50.0089 139.075 49.7422 136.601 49.7422C132.18 49.7422 128.653 50.5956 126.022 52.3022C123.443 54.0089 122.153 56.3733 122.153 59.3956C122.153 61.0311 122.496 62.4533 123.18 63.6622C123.917 64.8356 124.89 65.8133 126.101 66.5956C127.311 67.3422 128.706 67.9111 130.285 68.3022C131.864 68.6578 133.548 68.8356 135.338 68.8356C136.496 68.8356 137.522 68.7645 138.417 68.6222C139.311 68.48 139.996 68.32 140.469 68.1422V63.1289H132.022C131.706 62.7378 131.39 62.2222 131.075 61.5822C130.811 60.9422 130.68 60.2667 130.68 59.5556C130.68 58.2756 131.101 57.3511 131.943 56.7822C132.838 56.2133 133.969 55.9289 135.338 55.9289H148.68C150.259 55.9289 151.469 56.2311 152.311 56.8356C153.206 57.4045 153.653 58.2222 153.653 59.2889V70.1689Z" fill="#2E3A1B"/>
<path d="M50.9175 60.4533C50.9175 57.68 51.5491 55.2267 52.8122 53.0933C54.128 50.96 55.8912 49.1822 58.1017 47.76C60.3649 46.3022 62.9964 45.2 65.9964 44.4533C69.0491 43.7067 72.3385 43.3333 75.8649 43.3333C79.3912 43.3333 82.6543 43.7067 85.6543 44.4533C88.707 45.2 91.3649 46.3022 93.628 47.76C95.8912 49.1822 97.6543 50.96 98.9175 53.0933C100.233 55.2267 100.891 57.68 100.891 60.4533C100.891 63.2267 100.26 65.6978 98.9964 67.8667C97.7333 70 95.9701 71.7956 93.707 73.2533C91.4964 74.6756 88.8649 75.76 85.8122 76.5067C82.7596 77.2533 79.4438 77.6267 75.8649 77.6267C72.2859 77.6267 68.9701 77.2533 65.9175 76.5067C62.8649 75.7245 60.2333 74.6045 58.0227 73.1467C55.8122 71.6889 54.0754 69.8933 52.8122 67.76C51.5491 65.6267 50.9175 63.1911 50.9175 60.4533ZM65.128 60.4533C65.128 63.6889 66.1017 66.1067 68.0491 67.7067C69.9964 69.3067 72.6017 70.1067 75.8649 70.1067C79.1806 70.1067 81.8122 69.3067 83.7596 67.7067C85.707 66.1067 86.6806 63.6889 86.6806 60.4533C86.6806 57.2533 85.707 54.8533 83.7596 53.2533C81.8649 51.6533 79.2596 50.8533 75.9438 50.8533C72.6806 50.8533 70.0491 51.6533 68.0491 53.2533C66.1017 54.8178 65.128 57.2178 65.128 60.4533Z" fill="#2E3A1B"/>
<path d="M32.4474 75.6C31.7105 76.0267 30.5526 76.4 28.9737 76.72C27.4474 77.04 25.7632 77.2 23.9211 77.2C21.7105 77.2 19.8158 76.9867 18.2368 76.56C16.6579 76.0978 15.5789 75.4756 15 74.6933C14.4211 73.8756 13.7105 72.8267 12.8684 71.5467C12.0263 70.2311 11.1316 68.7733 10.1842 67.1733C9.28947 65.5733 8.34211 63.8845 7.34211 62.1067C6.39474 60.2933 5.47368 58.4622 4.57895 56.6133C3.68421 54.7645 2.84211 52.9511 2.05263 51.1733C1.26316 49.3956 0.578947 47.7245 0 46.16C0.736842 45.6622 1.78947 45.2178 3.15789 44.8267C4.57895 44.4 6.07895 44.1867 7.6579 44.1867C9.60526 44.1867 11.1842 44.4711 12.3947 45.04C13.6579 45.5733 14.5789 46.5867 15.1579 48.08C16.5789 51.5645 18 54.9067 19.4211 58.1067C20.8947 61.2711 22.4211 64.5778 24 68.0267H24.4737C25.8947 64.6845 27.3421 61.04 28.8158 57.0933C30.3421 53.1467 31.7895 49.2178 33.1579 45.3067C34.1053 44.9867 35.1053 44.72 36.1579 44.5067C37.2632 44.2933 38.5 44.1867 39.8684 44.1867C41.8158 44.1867 43.4737 44.4889 44.8421 45.0933C46.2105 45.6622 46.8947 46.6222 46.8947 47.9733C46.8947 48.7556 46.6053 49.8933 46.0263 51.3867C45.5 52.88 44.7895 54.5689 43.8947 56.4533C43.0526 58.3022 42.0789 60.24 40.9737 62.2667C39.9211 64.2933 38.8421 66.2133 37.7368 68.0267C36.6842 69.8045 35.6842 71.3867 34.7368 72.7733C33.7895 74.1245 33.0263 75.0667 32.4474 75.6Z" fill="#2E3A1B"/>
<path d="M213.648 51.5289C213.648 50 214.306 48.7911 215.622 47.9022C216.938 47.0133 218.727 46.5689 220.99 46.5689H247.043C247.411 46.96 247.727 47.4755 247.99 48.1155C248.306 48.7555 248.464 49.4311 248.464 50.1422C248.464 51.4933 248.016 52.4533 247.122 53.0222C246.28 53.5911 245.148 53.8755 243.727 53.8755H227.069V58.8355H244.832C245.201 59.2267 245.516 59.7422 245.78 60.3822C246.095 60.9867 246.253 61.6444 246.253 62.3555C246.253 63.7067 245.832 64.6667 244.99 65.2355C244.148 65.8044 243.016 66.0889 241.595 66.0889H227.069V71.6889H247.359C247.727 72.08 248.043 72.5956 248.306 73.2356C248.622 73.8756 248.78 74.5511 248.78 75.2622C248.78 76.6133 248.332 77.5911 247.437 78.1955C246.595 78.7644 245.464 79.0489 244.043 79.0489H220.99C218.727 79.0489 216.938 78.6044 215.622 77.7155C214.306 76.8267 213.648 75.6178 213.648 74.0889V51.5289Z" fill="#3C4B22"/>
<path d="M203.617 66.9422C203.617 68.8622 203.117 70.6222 202.117 72.2222C201.169 73.7867 199.775 75.1378 197.933 76.2756C196.09 77.3778 193.854 78.2311 191.222 78.8356C188.59 79.44 185.617 79.7422 182.301 79.7422C178.985 79.7422 176.012 79.44 173.38 78.8356C170.748 78.2311 168.512 77.3778 166.669 76.2756C164.827 75.1378 163.406 73.7867 162.406 72.2222C161.459 70.6222 160.985 68.8622 160.985 66.9422V46.5689C161.564 46.4978 162.485 46.4089 163.748 46.3022C165.012 46.16 166.222 46.0889 167.38 46.0889C168.59 46.0889 169.643 46.16 170.538 46.3022C171.485 46.4089 172.275 46.6222 172.906 46.9422C173.538 47.2622 174.012 47.7067 174.327 48.2756C174.643 48.8445 174.801 49.5911 174.801 50.5156V66.7822C174.801 68.4889 175.485 69.8222 176.854 70.7822C178.275 71.7422 180.09 72.2222 182.301 72.2222C184.564 72.2222 186.38 71.7422 187.748 70.7822C189.117 69.8222 189.801 68.4889 189.801 66.7822V46.5689C190.38 46.4978 191.301 46.4089 192.564 46.3022C193.827 46.16 195.038 46.0889 196.196 46.0889C197.406 46.0889 198.459 46.16 199.354 46.3022C200.301 46.4089 201.09 46.6222 201.722 46.9422C202.354 47.2622 202.827 47.7067 203.143 48.2756C203.459 48.8445 203.617 49.5911 203.617 50.5156V66.9422Z" fill="#3C4B22"/>
<path d="M153.653 72.3911C153.653 73.4933 153.364 74.3111 152.785 74.8445C152.206 75.3778 151.285 75.8933 150.022 76.3911C149.285 76.6756 148.364 76.96 147.259 77.2445C146.153 77.4933 144.943 77.7067 143.627 77.8845C142.311 78.0978 140.917 78.2578 139.443 78.3645C138.022 78.4711 136.601 78.5245 135.18 78.5245C131.39 78.5245 127.838 78.1867 124.522 77.5111C121.206 76.8 118.311 75.7511 115.838 74.3645C113.417 72.9422 111.496 71.1822 110.075 69.0845C108.653 66.9867 107.943 64.5511 107.943 61.7778C107.943 58.8622 108.706 56.32 110.232 54.1511C111.811 51.9822 113.864 50.1867 116.39 48.7645C118.969 47.3067 121.89 46.2222 125.153 45.5111C128.469 44.8 131.864 44.4445 135.338 44.4445C140.338 44.4445 144.285 44.9956 147.18 46.0978C150.127 47.1645 151.601 48.5689 151.601 50.3111C151.601 51.2356 151.259 52.0356 150.575 52.7111C149.89 53.3867 149.101 53.92 148.206 54.3111C146.89 53.7778 145.232 53.2622 143.232 52.7645C141.285 52.2311 139.075 51.9645 136.601 51.9645C132.18 51.9645 128.653 52.8178 126.022 54.5245C123.443 56.2311 122.153 58.5956 122.153 61.6178C122.153 63.2533 122.496 64.6756 123.18 65.8845C123.917 67.0578 124.89 68.0356 126.101 68.8178C127.311 69.5645 128.706 70.1333 130.285 70.5245C131.864 70.88 133.548 71.0578 135.338 71.0578C136.496 71.0578 137.522 70.9867 138.417 70.8445C139.311 70.7022 139.996 70.5422 140.469 70.3645V65.3511H132.022C131.706 64.96 131.39 64.4445 131.075 63.8045C130.811 63.1645 130.68 62.4889 130.68 61.7778C130.68 60.4978 131.101 59.5733 131.943 59.0045C132.838 58.4356 133.969 58.1511 135.338 58.1511H148.68C150.259 58.1511 151.469 58.4533 152.311 59.0578C153.206 59.6267 153.653 60.4445 153.653 61.5111V72.3911Z" fill="#3C4B22"/>
<path d="M50.9175 62.6755C50.9175 59.9022 51.5491 57.4489 52.8122 55.3155C54.128 53.1822 55.8912 51.4044 58.1017 49.9822C60.3649 48.5244 62.9964 47.4222 65.9964 46.6755C69.0491 45.9289 72.3385 45.5555 75.8649 45.5555C79.3912 45.5555 82.6543 45.9289 85.6543 46.6755C88.707 47.4222 91.3649 48.5244 93.628 49.9822C95.8912 51.4044 97.6543 53.1822 98.9175 55.3155C100.233 57.4489 100.891 59.9022 100.891 62.6755C100.891 65.4489 100.26 67.92 98.9964 70.0889C97.7333 72.2222 95.9701 74.0178 93.707 75.4755C91.4964 76.8978 88.8649 77.9822 85.8122 78.7289C82.7596 79.4755 79.4438 79.8489 75.8649 79.8489C72.2859 79.8489 68.9701 79.4755 65.9175 78.7289C62.8649 77.9467 60.2333 76.8267 58.0227 75.3689C55.8122 73.9111 54.0754 72.1155 52.8122 69.9822C51.5491 67.8489 50.9175 65.4133 50.9175 62.6755ZM65.128 62.6755C65.128 65.9111 66.1017 68.3289 68.0491 69.9289C69.9964 71.5289 72.6017 72.3289 75.8649 72.3289C79.1806 72.3289 81.8122 71.5289 83.7596 69.9289C85.707 68.3289 86.6806 65.9111 86.6806 62.6755C86.6806 59.4755 85.707 57.0755 83.7596 55.4755C81.8649 53.8755 79.2596 53.0755 75.9438 53.0755C72.6806 53.0755 70.0491 53.8755 68.0491 55.4755C66.1017 57.04 65.128 59.44 65.128 62.6755Z" fill="#3C4B22"/>
<path d="M32.4474 77.8222C31.7105 78.2489 30.5526 78.6222 28.9737 78.9422C27.4474 79.2622 25.7632 79.4222 23.9211 79.4222C21.7105 79.4222 19.8158 79.2089 18.2368 78.7822C16.6579 78.32 15.5789 77.6978 15 76.9155C14.4211 76.0978 13.7105 75.0489 12.8684 73.7689C12.0263 72.4533 11.1316 70.9955 10.1842 69.3955C9.28947 67.7955 8.34211 66.1067 7.34211 64.3289C6.39474 62.5155 5.47368 60.6844 4.57895 58.8355C3.68421 56.9867 2.84211 55.1733 2.05263 53.3955C1.26316 51.6178 0.578947 49.9466 0 48.3822C0.736842 47.8844 1.78947 47.44 3.15789 47.0489C4.57895 46.6222 6.07895 46.4089 7.6579 46.4089C9.60526 46.4089 11.1842 46.6933 12.3947 47.2622C13.6579 47.7955 14.5789 48.8089 15.1579 50.3022C16.5789 53.7867 18 57.1289 19.4211 60.3289C20.8947 63.4933 22.4211 66.8 24 70.2489H24.4737C25.8947 66.9067 27.3421 63.2622 28.8158 59.3155C30.3421 55.3689 31.7895 51.44 33.1579 47.5289C34.1053 47.2089 35.1053 46.9422 36.1579 46.7289C37.2632 46.5155 38.5 46.4089 39.8684 46.4089C41.8158 46.4089 43.4737 46.7111 44.8421 47.3155C46.2105 47.8844 46.8947 48.8444 46.8947 50.1955C46.8947 50.9778 46.6053 52.1155 46.0263 53.6089C45.5 55.1022 44.7895 56.7911 43.8947 58.6755C43.0526 60.5244 42.0789 62.4622 40.9737 64.4889C39.9211 66.5155 38.8421 68.4355 37.7368 70.2489C36.6842 72.0267 35.6842 73.6089 34.7368 74.9955C33.7895 76.3467 33.0263 77.2889 32.4474 77.8222Z" fill="#3C4B22"/>
</svg>
