<svg width="150" height="80" viewBox="0 0 150 80" fill="none" xmlns="http://www.w3.org/2000/svg">
<path d="M19.7368 1.11111C21.7875 3.37673 21.7875 3.37673 23.9308 6.25C34.2843 19.5779 47.2703 29.4882 63.1576 32.2222C82.6251 33.3984 98.9343 28.3692 113.992 13.8021C117.862 9.56053 121.165 4.90881 124.342 0C125.644 0.366667 126.947 0.733333 128.289 1.11111C128.289 8.09016 124.54 11.7528 120.394 16.6667C105.277 31.7747 86.5599 40.3023 66.3382 39.3056C50.016 37.954 33.8177 30.2061 21.7105 17.7778C20.895 16.9484 20.0796 16.1192 19.2395 15.2648C12.4175 7.99233 12.4175 7.99233 11.842 2.22222C14.9016 0.130749 16.3837 -0.394867 19.7368 1.11111Z" fill="white"/>
<path d="M19.7368 1.11111C21.7875 3.37673 21.7875 3.37673 23.9308 6.25C34.2843 19.5779 47.2703 29.4882 63.1576 32.2222C82.6251 33.3984 98.9343 28.3692 113.992 13.8021C117.862 9.56053 121.165 4.90881 124.342 0C125.644 0.366667 126.947 0.733333 128.289 1.11111C128.289 8.09016 124.54 11.7528 120.394 16.6667C105.277 31.7747 86.5599 40.3023 66.3382 39.3056C50.016 37.954 33.8177 30.2061 21.7105 17.7778C20.895 16.9484 20.0796 16.1192 19.2395 15.2648C12.4175 7.99233 12.4175 7.99233 11.842 2.22222C14.9016 0.130749 16.3837 -0.394867 19.7368 1.11111Z" fill="#3C4B22"/>
<path d="M128.189 49.3067C128.189 47.7778 128.584 46.5689 129.373 45.68C130.163 44.7911 131.236 44.3467 132.594 44.3467H148.226C148.447 44.7378 148.636 45.2533 148.794 45.8933C148.984 46.5333 149.078 47.2089 149.078 47.92C149.078 49.2711 148.81 50.2311 148.273 50.8C147.768 51.3689 147.089 51.6533 146.236 51.6533H136.241V56.6133H146.899C147.121 57.0045 147.31 57.52 147.468 58.16C147.657 58.7645 147.752 59.4222 147.752 60.1333C147.752 61.4845 147.499 62.4445 146.994 63.0134C146.489 63.5822 145.81 63.8667 144.957 63.8667H136.241V69.4667H148.415C148.636 69.8578 148.826 70.3733 148.984 71.0133C149.173 71.6533 149.268 72.3289 149.268 73.04C149.268 74.3911 148.999 75.3689 148.462 75.9733C147.957 76.5422 147.278 76.8267 146.426 76.8267H132.594C131.236 76.8267 130.163 76.3822 129.373 75.4933C128.584 74.6045 128.189 73.3956 128.189 71.8667V49.3067Z" fill="#2E3A1B"/>
<path d="M122.17 64.72C122.17 66.64 121.87 68.4 121.27 70C120.701 71.5644 119.865 72.9156 118.76 74.0533C117.654 75.1556 116.312 76.0089 114.733 76.6133C113.154 77.2178 111.37 77.52 109.38 77.52C107.391 77.52 105.607 77.2178 104.028 76.6133C102.449 76.0089 101.107 75.1556 100.001 74.0533C98.896 72.9156 98.0434 71.5644 97.4434 70C96.8752 68.4 96.5908 66.64 96.5908 64.72V44.3467C96.9382 44.2756 97.4908 44.1867 98.2486 44.08C99.007 43.9378 99.733 43.8667 100.428 43.8667C101.154 43.8667 101.786 43.9378 102.323 44.08C102.891 44.1867 103.365 44.4 103.743 44.72C104.123 45.04 104.407 45.4844 104.596 46.0533C104.786 46.6222 104.88 47.3689 104.88 48.2933V64.56C104.88 66.2667 105.291 67.6 106.112 68.56C106.965 69.52 108.054 70 109.38 70C110.738 70 111.828 69.52 112.649 68.56C113.47 67.6 113.88 66.2667 113.88 64.56V44.3467C114.228 44.2756 114.78 44.1867 115.538 44.08C116.296 43.9378 117.023 43.8667 117.717 43.8667C118.443 43.8667 119.075 43.9378 119.612 44.08C120.18 44.1867 120.654 44.4 121.033 44.72C121.412 45.04 121.696 45.4844 121.885 46.0533C122.075 46.6222 122.17 47.3689 122.17 48.2933V64.72Z" fill="#2E3A1B"/>
<path d="M92.1919 70.1689C92.1919 71.2711 92.0185 72.0889 91.6711 72.6222C91.3237 73.1556 90.7711 73.6711 90.0133 74.1689C89.5711 74.4533 89.0185 74.7378 88.3555 75.0222C87.6919 75.2711 86.9659 75.4845 86.1763 75.6622C85.3867 75.8756 84.5503 76.0356 83.6659 76.1422C82.8133 76.2489 81.9607 76.3022 81.1081 76.3022C78.8341 76.3022 76.7029 75.9645 74.7133 75.2889C72.7237 74.5778 70.9867 73.5289 69.5029 72.1422C68.0503 70.72 66.8977 68.96 66.0451 66.8622C65.1919 64.7645 64.7659 62.3289 64.7659 59.5556C64.7659 56.64 65.2237 54.0978 66.1393 51.9289C67.0867 49.76 68.3185 47.9645 69.8341 46.5422C71.3815 45.0845 73.1341 44 75.0919 43.2889C77.0815 42.5778 79.1185 42.2222 81.2029 42.2222C84.2029 42.2222 86.5711 42.7733 88.3081 43.8756C90.0763 44.9422 90.9607 46.3467 90.9607 48.0889C90.9607 49.0133 90.7555 49.8133 90.3451 50.4889C89.9341 51.1645 89.4607 51.6978 88.9237 52.0889C88.1341 51.5556 87.1393 51.04 85.9393 50.5422C84.7711 50.0089 83.4451 49.7422 81.9607 49.7422C79.3081 49.7422 77.1919 50.5956 75.6133 52.3022C74.0659 54.0089 73.2919 56.3733 73.2919 59.3956C73.2919 61.0311 73.4977 62.4533 73.9081 63.6622C74.3503 64.8356 74.9341 65.8133 75.6607 66.5956C76.3867 67.3422 77.2237 67.9111 78.1711 68.3022C79.1185 68.6578 80.1289 68.8356 81.2029 68.8356C81.8977 68.8356 82.5133 68.7645 83.0503 68.6222C83.5867 68.48 83.9977 68.32 84.2815 68.1422V63.1289H79.2133C79.0237 62.7378 78.8341 62.2222 78.6451 61.5822C78.4867 60.9422 78.4081 60.2667 78.4081 59.5556C78.4081 58.2756 78.6607 57.3511 79.1659 56.7822C79.7029 56.2133 80.3815 55.9289 81.2029 55.9289H89.2081C90.1555 55.9289 90.8815 56.2311 91.3867 56.8356C91.9237 57.4045 92.1919 58.2222 92.1919 59.2889V70.1689Z" fill="#2E3A1B"/>
<path d="M30.5503 60.4533C30.5503 57.68 30.9293 55.2267 31.6871 53.0933C32.4766 50.96 33.5345 49.1822 34.8608 47.76C36.2187 46.3022 37.7976 45.2 39.5976 44.4533C41.4293 43.7067 43.4029 43.3333 45.5187 43.3333C47.6345 43.3333 49.5924 43.7067 51.3924 44.4533C53.224 45.2 54.8187 46.3022 56.1766 47.76C57.5345 49.1822 58.5924 50.96 59.3503 53.0933C60.1396 55.2267 60.5344 57.68 60.5344 60.4533C60.5344 63.2267 60.1558 65.6978 59.3976 67.8667C58.6398 70 57.5819 71.7956 56.224 73.2533C54.8976 74.6756 53.3187 75.76 51.4871 76.5067C49.6556 77.2533 47.6661 77.6267 45.5187 77.6267C43.3713 77.6267 41.3819 77.2533 39.5503 76.5067C37.7187 75.7245 36.1398 74.6045 34.8134 73.1467C33.4871 71.6889 32.445 69.8933 31.6871 67.76C30.9293 65.6267 30.5503 63.1911 30.5503 60.4533ZM39.0766 60.4533C39.0766 63.6889 39.6608 66.1067 40.8293 67.7067C41.9976 69.3067 43.5608 70.1067 45.5187 70.1067C47.5082 70.1067 49.0871 69.3067 50.2556 67.7067C51.424 66.1067 52.0082 63.6889 52.0082 60.4533C52.0082 57.2533 51.424 54.8533 50.2556 53.2533C49.1187 51.6533 47.5556 50.8533 45.5661 50.8533C43.6082 50.8533 42.0293 51.6533 40.8293 53.2533C39.6608 54.8178 39.0766 57.2178 39.0766 60.4533Z" fill="#2E3A1B"/>
<path d="M19.4684 75.6C19.0262 76.0267 18.3315 76.4 17.3842 76.72C16.4684 77.04 15.4579 77.2 14.3526 77.2C13.0263 77.2 11.8894 76.9867 10.942 76.56C9.99471 76.0978 9.34731 75.4756 8.99997 74.6933C8.65263 73.8756 8.22627 72.8267 7.72102 71.5467C7.21576 70.2311 6.67894 68.7733 6.1105 67.1733C5.57366 65.5733 5.00525 63.8845 4.40525 62.1067C3.83683 60.2933 3.2842 58.4622 2.74736 56.6133C2.21052 54.7645 1.70526 52.9511 1.23157 51.1733C0.757894 49.3956 0.347367 47.7245 0 46.16C0.442104 45.6622 1.07368 45.2178 1.89473 44.8267C2.74736 44.4 3.64736 44.1867 4.59473 44.1867C5.76314 44.1867 6.7105 44.4711 7.4368 45.04C8.19471 45.5733 8.74731 46.5867 9.09471 48.08C9.94731 51.5645 10.8 54.9067 11.6526 58.1067C12.5368 61.2711 13.4526 64.5778 14.4 68.0267H14.6842C15.5368 64.6845 16.4052 61.04 17.2894 57.0933C18.2052 53.1467 19.0736 49.2178 19.8947 45.3067C20.4631 44.9867 21.0631 44.72 21.6947 44.5067C22.3579 44.2933 23.0999 44.1867 23.921 44.1867C25.0894 44.1867 26.0841 44.4889 26.9052 45.0933C27.7262 45.6622 28.1367 46.6222 28.1367 47.9733C28.1367 48.7556 27.9631 49.8933 27.6157 51.3867C27.2999 52.88 26.8736 54.5689 26.3367 56.4533C25.8315 58.3022 25.2473 60.24 24.5841 62.2667C23.9526 64.2933 23.3052 66.2133 22.642 68.0267C22.0105 69.8045 21.4105 71.3867 20.842 72.7733C20.2736 74.1245 19.8157 75.0667 19.4684 75.6Z" fill="#2E3A1B"/>
<path d="M128.189 51.5289C128.189 50 128.584 48.7911 129.373 47.9022C130.163 47.0133 131.236 46.5689 132.594 46.5689H148.226C148.447 46.96 148.636 47.4755 148.794 48.1155C148.984 48.7555 149.078 49.4311 149.078 50.1422C149.078 51.4933 148.81 52.4533 148.273 53.0222C147.768 53.5911 147.089 53.8755 146.236 53.8755H136.241V58.8355H146.899C147.121 59.2267 147.31 59.7422 147.468 60.3822C147.657 60.9867 147.752 61.6444 147.752 62.3555C147.752 63.7067 147.499 64.6667 146.994 65.2355C146.489 65.8044 145.81 66.0889 144.957 66.0889H136.241V71.6889H148.415C148.636 72.08 148.826 72.5956 148.984 73.2356C149.173 73.8756 149.268 74.5511 149.268 75.2622C149.268 76.6133 148.999 77.5911 148.462 78.1955C147.957 78.7644 147.278 79.0489 146.426 79.0489H132.594C131.236 79.0489 130.163 78.6044 129.373 77.7155C128.584 76.8267 128.189 75.6178 128.189 74.0889V51.5289Z" fill="#3C4B22"/>
<path d="M122.17 66.9422C122.17 68.8622 121.87 70.6222 121.27 72.2222C120.701 73.7867 119.865 75.1378 118.76 76.2756C117.654 77.3778 116.312 78.2311 114.733 78.8356C113.154 79.44 111.37 79.7422 109.38 79.7422C107.391 79.7422 105.607 79.44 104.028 78.8356C102.449 78.2311 101.107 77.3778 100.001 76.2756C98.896 75.1378 98.0434 73.7867 97.4434 72.2222C96.8752 70.6222 96.5908 68.8622 96.5908 66.9422V46.5689C96.9382 46.4978 97.4908 46.4089 98.2486 46.3022C99.007 46.16 99.733 46.0889 100.428 46.0889C101.154 46.0889 101.786 46.16 102.323 46.3022C102.891 46.4089 103.365 46.6222 103.743 46.9422C104.123 47.2622 104.407 47.7067 104.596 48.2756C104.786 48.8445 104.88 49.5911 104.88 50.5156V66.7822C104.88 68.4889 105.291 69.8222 106.112 70.7822C106.965 71.7422 108.054 72.2222 109.38 72.2222C110.738 72.2222 111.828 71.7422 112.649 70.7822C113.47 69.8222 113.88 68.4889 113.88 66.7822V46.5689C114.228 46.4978 114.78 46.4089 115.538 46.3022C116.296 46.16 117.023 46.0889 117.717 46.0889C118.443 46.0889 119.075 46.16 119.612 46.3022C120.18 46.4089 120.654 46.6222 121.033 46.9422C121.412 47.2622 121.696 47.7067 121.885 48.2756C122.075 48.8445 122.17 49.5911 122.17 50.5156V66.9422Z" fill="#3C4B22"/>
<path d="M92.1919 72.3911C92.1919 73.4933 92.0185 74.3111 91.6711 74.8445C91.3237 75.3778 90.7711 75.8933 90.0133 76.3911C89.5711 76.6756 89.0185 76.96 88.3555 77.2445C87.6919 77.4933 86.9659 77.7067 86.1763 77.8845C85.3867 78.0978 84.5503 78.2578 83.6659 78.3645C82.8133 78.4711 81.9607 78.5245 81.1081 78.5245C78.8341 78.5245 76.7029 78.1867 74.7133 77.5111C72.7237 76.8 70.9867 75.7511 69.5029 74.3645C68.0503 72.9422 66.8977 71.1822 66.0451 69.0845C65.1919 66.9867 64.7659 64.5511 64.7659 61.7778C64.7659 58.8622 65.2237 56.32 66.1393 54.1511C67.0867 51.9822 68.3185 50.1867 69.8341 48.7645C71.3815 47.3067 73.1341 46.2222 75.0919 45.5111C77.0815 44.8 79.1185 44.4445 81.2029 44.4445C84.2029 44.4445 86.5711 44.9956 88.3081 46.0978C90.0763 47.1645 90.9607 48.5689 90.9607 50.3111C90.9607 51.2356 90.7555 52.0356 90.3451 52.7111C89.9341 53.3867 89.4607 53.92 88.9237 54.3111C88.1341 53.7778 87.1393 53.2622 85.9393 52.7645C84.7711 52.2311 83.4451 51.9645 81.9607 51.9645C79.3081 51.9645 77.1919 52.8178 75.6133 54.5245C74.0659 56.2311 73.2919 58.5956 73.2919 61.6178C73.2919 63.2533 73.4977 64.6756 73.9081 65.8845C74.3503 67.0578 74.9341 68.0356 75.6607 68.8178C76.3867 69.5645 77.2237 70.1333 78.1711 70.5245C79.1185 70.88 80.1289 71.0578 81.2029 71.0578C81.8977 71.0578 82.5133 70.9867 83.0503 70.8445C83.5867 70.7022 83.9977 70.5422 84.2815 70.3645V65.3511H79.2133C79.0237 64.96 78.8341 64.4445 78.6451 63.8045C78.4867 63.1645 78.4081 62.4889 78.4081 61.7778C78.4081 60.4978 78.6607 59.5733 79.1659 59.0045C79.7029 58.4356 80.3815 58.1511 81.2029 58.1511H89.2081C90.1555 58.1511 90.8815 58.4533 91.3867 59.0578C91.9237 59.6267 92.1919 60.4445 92.1919 61.5111V72.3911Z" fill="#3C4B22"/>
<path d="M30.5503 62.6755C30.5503 59.9022 30.9293 57.4489 31.6871 55.3155C32.4766 53.1822 33.5345 51.4044 34.8608 49.9822C36.2187 48.5244 37.7976 47.4222 39.5976 46.6755C41.4293 45.9289 43.4029 45.5555 45.5187 45.5555C47.6345 45.5555 49.5924 45.9289 51.3924 46.6755C53.224 47.4222 54.8187 48.5244 56.1766 49.9822C57.5345 51.4044 58.5924 53.1822 59.3503 55.3155C60.1396 57.4489 60.5344 59.9022 60.5344 62.6755C60.5344 65.4489 60.1558 67.92 59.3976 70.0889C58.6398 72.2222 57.5819 74.0178 56.224 75.4755C54.8976 76.8978 53.3187 77.9822 51.4871 78.7289C49.6556 79.4755 47.6661 79.8489 45.5187 79.8489C43.3713 79.8489 41.3819 79.4755 39.5503 78.7289C37.7187 77.9467 36.1398 76.8267 34.8134 75.3689C33.4871 73.9111 32.445 72.1155 31.6871 69.9822C30.9293 67.8489 30.5503 65.4133 30.5503 62.6755ZM39.0766 62.6755C39.0766 65.9111 39.6608 68.3289 40.8293 69.9289C41.9976 71.5289 43.5608 72.3289 45.5187 72.3289C47.5082 72.3289 49.0871 71.5289 50.2556 69.9289C51.424 68.3289 52.0082 65.9111 52.0082 62.6755C52.0082 59.4755 51.424 57.0755 50.2556 55.4755C49.1187 53.8755 47.5556 53.0755 45.5661 53.0755C43.6082 53.0755 42.0293 53.8755 40.8293 55.4755C39.6608 57.04 39.0766 59.44 39.0766 62.6755Z" fill="#3C4B22"/>
<path d="M19.4684 77.8222C19.0262 78.2489 18.3315 78.6222 17.3842 78.9422C16.4684 79.2622 15.4579 79.4222 14.3526 79.4222C13.0263 79.4222 11.8894 79.2089 10.942 78.7822C9.99471 78.32 9.34731 77.6978 8.99997 76.9155C8.65263 76.0978 8.22627 75.0489 7.72102 73.7689C7.21576 72.4533 6.67894 70.9955 6.1105 69.3955C5.57366 67.7955 5.00525 66.1067 4.40525 64.3289C3.83683 62.5155 3.2842 60.6844 2.74736 58.8355C2.21052 56.9867 1.70526 55.1733 1.23157 53.3955C0.757894 51.6178 0.347367 49.9466 0 48.3822C0.442104 47.8844 1.07368 47.44 1.89473 47.0489C2.74736 46.6222 3.64736 46.4089 4.59473 46.4089C5.76314 46.4089 6.7105 46.6933 7.4368 47.2622C8.19471 47.7955 8.74731 48.8089 9.09471 50.3022C9.94731 53.7867 10.8 57.1289 11.6526 60.3289C12.5368 63.4933 13.4526 66.8 14.4 70.2489H14.6842C15.5368 66.9067 16.4052 63.2622 17.2894 59.3155C18.2052 55.3689 19.0736 51.44 19.8947 47.5289C20.4631 47.2089 21.0631 46.9422 21.6947 46.7289C22.3579 46.5155 23.0999 46.4089 23.921 46.4089C25.0894 46.4089 26.0841 46.7111 26.9052 47.3155C27.7262 47.8844 28.1367 48.8444 28.1367 50.1955C28.1367 50.9778 27.9631 52.1155 27.6157 53.6089C27.2999 55.1022 26.8736 56.7911 26.3367 58.6755C25.8315 60.5244 25.2473 62.4622 24.5841 64.4889C23.9526 66.5155 23.3052 68.4355 22.642 70.2489C22.0105 72.0267 21.4105 73.6089 20.842 74.9955C20.2736 76.3467 19.8157 77.2889 19.4684 77.8222Z" fill="#3C4B22"/>
</svg>
