<svg width="146" height="68" viewBox="0 0 146 68" fill="none" xmlns="http://www.w3.org/2000/svg">
<path d="M16 1C18.0781 3.03906 18.0781 3.03906 20.25 5.625C30.7415 17.6201 43.9007 26.5394 60 29C79.727 30.0586 96.2538 25.5323 111.512 12.4219C115.434 8.60448 118.781 4.41793 122 0C123.32 0.33 124.64 0.66 126 1C126 7.28114 122.201 10.5775 118 15C102.681 28.5972 83.7141 36.2721 63.2227 35.375C46.683 34.1586 30.2687 27.1855 18 16C17.1737 15.2536 16.3474 14.5073 15.4961 13.7383C8.58309 7.1931 8.58309 7.1931 8 2C11.1003 0.117674 12.6022 -0.35538 16 1Z" fill="#3C4B22"/>
<path d="M52 36C56.996 38.1036 59.1706 41.0962 61.3086 45.918C62.7859 50.3665 62.4408 53.7756 60.875 58.125C58.0798 62.4109 54.9522 65.3493 50 67C43.5816 67.7722 38.2209 66.9717 33 63C29.6365 59.428 28.7325 55.7687 28.5 50.9375C28.776 44.8739 31.1582 41.7946 35.4375 37.625C40.9047 35.1312 46.0924 35.2775 52 36ZM38 44C35.7753 48.6516 35.8209 52.0116 37 57C38.3285 59.8467 39.3453 61.5199 41.875 63.375C44.7876 64.2316 46.1528 64.1111 49 63C52.9326 59.3355 54.7746 56.4236 55.1367 51.0234C54.8385 46.6098 53.1668 43.2056 50.125 40.0625C44.4886 37.2443 41.7327 39.3593 38 44Z" fill="#3C4B22"/>
<path d="M80.3125 35.75C82.0083 35.7113 82.0083 35.7113 83.7383 35.6719C87.2778 36.0279 89.1326 36.9557 92 39C91.67 39.99 91.34 40.98 91 42C88.8313 41.494 87.0003 41.0002 85 40C80.0751 39.5355 80.0751 39.5355 75.6875 41.5C72.5473 46.1521 71.7312 50.2078 72.5625 55.75C74.228 59.5155 75.4049 61.0027 79 63C82.7094 63.3347 82.7094 63.3347 86 63C86 60.03 86 57.06 86 54C84.68 53.67 83.36 53.34 82 53C82 52.01 82 51.02 82 50C85.63 50 89.26 50 93 50C93.135 52.1024 93.232 54.2073 93.3125 56.3125C93.3705 57.4843 93.4285 58.656 93.4883 59.8633C93 63 93 63 90.668 64.8555C85.0132 67.2813 79.7713 68.0983 73.7734 66.3516C69.4633 64.4628 66.6842 62.2651 64.6211 57.9922C63.0625 52.993 63.4386 48.5661 65.1875 43.6875C69.2708 37.633 73.2621 35.8458 80.3125 35.75Z" fill="#3C4B22"/>
<path d="M96 36C98.31 36 100.62 36 103 36C103.015 36.5744 103.029 37.1489 103.044 37.7407C103.119 40.3695 103.216 42.997 103.312 45.625C103.335 46.5286 103.358 47.4323 103.381 48.3633C103.59 53.5822 104.026 57.5205 107 62C109.341 63.2515 109.341 63.2515 112 63C115.713 61.2489 115.713 61.2489 118 58C118.152 56.3343 118.249 54.6634 118.316 52.9922C118.358 52.0061 118.4 51.0199 118.443 50.0039C118.483 48.9714 118.522 47.9388 118.562 46.875C118.606 45.8347 118.649 44.7945 118.693 43.7227C118.8 41.1486 118.902 38.5744 119 36C120.32 36 121.64 36 123 36C123.117 39.7081 123.187 43.4157 123.25 47.125C123.284 48.1717 123.317 49.2184 123.352 50.2969C123.43 56.5277 123.253 60.3 119 65C114.789 67.6467 109.831 67.5797 105 67C101.789 65.5343 99.2128 63.766 97 61C96.0262 57.9594 95.8829 55.1961 95.9023 52.0156C95.9056 51.0811 95.9088 50.1465 95.9121 49.1836C95.9205 48.2155 95.9289 47.2474 95.9375 46.25C95.942 45.2664 95.9465 44.2829 95.9512 43.2695C95.9629 40.8463 95.9794 38.4232 96 36Z" fill="#3C4B22"/>
<path d="M122 0C123.32 0.33 124.64 0.66 126 1C126 7.28114 122.201 10.5775 118 15C100.704 30.3517 81.5465 36.0045 59 35C59 34.67 59 34.34 59 34C59.6381 33.951 60.2762 33.902 60.9336 33.8516C61.7599 33.7768 62.5862 33.702 63.4375 33.625C64.6731 33.5206 64.6731 33.5206 65.9336 33.4141C66.9565 33.2091 66.9565 33.2091 68 33C68.33 32.34 68.66 31.68 69 31C68.01 31.33 67.02 31.66 66 32C66 31.34 66 30.68 66 30C66.9926 29.9136 67.9852 29.8273 69.0078 29.7383C87.1202 27.9538 104.147 21.618 116.203 7.40234C118.169 4.9587 120.101 2.49584 122 0Z" fill="#3C4B22"/>
<path d="M125 36C131.6 36 138.2 36 145 36C145 36.99 145 37.98 145 39C139.06 39.495 139.06 39.495 133 40C133 42.97 133 45.94 133 49C135.64 49 138.28 49 141 49C141 50.32 141 51.64 141 53C138.36 53 135.72 53 133 53C133 56.3 133 59.6 133 63C137.29 63 141.58 63 146 63C146 63.99 146 64.98 146 66C138.913 67.8288 132.17 67.0243 125 66C125 56.1 125 46.2 125 36Z" fill="#3C4B22"/>
<path d="M0 36C2.97 36 5.94 36 9 36C11.64 42.27 14.28 48.54 17 55C20.2907 51.7093 21.5336 46.9904 23.1699 42.6777C23.9988 40.6542 24.784 38.8185 26 37C28.7305 36.0039 28.7305 36.0039 31 36C28.9055 42.6681 26.4209 49.0959 23.625 55.5C23.2512 56.4049 22.8773 57.3098 22.4922 58.2422C22.1158 59.1007 21.7394 59.9592 21.3516 60.8438C20.8539 62.0068 20.8539 62.0068 20.3462 63.1934C19 65 19 65 16.353 65.7598C15.5765 65.839 14.8 65.9183 14 66C0 38.3198 0 38.3198 0 36Z" fill="#3C4B22"/>
<path d="M122 0C123.32 0.33 124.64 0.66 126 1C126 7.2699 122.211 10.5969 118 15C107.722 24.1145 107.722 24.1145 102 25C102.252 21.2525 102.509 19.4867 105.223 16.7969C106.16 16.1214 107.097 15.4459 108.062 14.75C113.682 10.4434 117.845 5.70274 122 0Z" fill="#3C4B22"/>
<path d="M82 50C85.63 50 89.26 50 93 50C93.135 52.1024 93.232 54.2073 93.3125 56.3125C93.3705 57.4843 93.4285 58.656 93.4883 59.8633C93 63 93 63 90.668 64.8555C85.0326 67.273 79.5219 68.3309 73.6328 66.1055C71.7179 65.1412 69.8532 64.0782 68 63C71.0498 61.4751 73.6512 62.5216 77 63C80.0064 63.0859 82.9914 63.0463 86 63C86 60.03 86 57.06 86 54C84.68 53.67 83.36 53.34 82 53C82 52.01 82 51.02 82 50Z" fill="#3C4B22"/>
<path d="M42 24C43.1756 24.4331 44.3513 24.8663 45.5625 25.3125C51.181 27.2032 56.9296 28.2595 62.7422 29.3516C66 30 66 30 69 31C68.67 31.99 68.34 32.98 68 34C56.8437 34.7121 48.3388 33.1062 38 29C38.66 28.67 39.32 28.34 40 28C41.1335 25.9833 41.1335 25.9833 42 24Z" fill="#3C4B22"/>
<path d="M119 36C120.32 36 121.64 36 123 36C123.087 39.2707 123.14 42.541 123.188 45.8125C123.225 47.2057 123.225 47.2057 123.264 48.627C123.273 49.5196 123.283 50.4123 123.293 51.332C123.309 52.1542 123.324 52.9764 123.341 53.8235C122.92 56.5115 122.02 57.2539 120 59C118.824 61.0999 118.824 61.0999 118 63C117.67 62.01 117.34 61.02 117 60C117.33 59.34 117.66 58.68 118 58C118.152 56.3343 118.249 54.6634 118.316 52.9922C118.358 52.0061 118.4 51.0199 118.443 50.0039C118.483 48.9714 118.522 47.9388 118.562 46.875C118.606 45.8347 118.649 44.7945 118.693 43.7227C118.8 41.1486 118.902 38.5744 119 36Z" fill="#3C4B22"/>
<path d="M122 56C122.33 56.99 122.66 57.98 123 59C121.306 62.1919 119.899 64.4346 116.812 66.375C111.206 67.6209 106.079 67.9026 101 65C101.99 64.67 102.98 64.34 104 64C104 62.35 104 60.7 104 59C104.701 59.6806 105.402 60.3612 106.125 61.0625C108.857 63.3381 108.857 63.3381 112.125 62.75C113.074 62.5025 114.022 62.255 115 62C115.99 62 116.98 62 118 62C118.66 60.68 119.32 59.36 120 58C120.66 58 121.32 58 122 58C122 57.34 122 56.68 122 56Z" fill="#3C4B22"/>
<path d="M74 36C76.0618 35.9185 78.1246 35.8606 80.1875 35.8125C81.3361 35.7777 82.4846 35.7429 83.668 35.707C87.2704 36.0238 89.0937 36.9147 92 39C91.67 39.99 91.34 40.98 91 42C88.8313 41.494 87.0003 41.0002 85 40C80.0323 39.5114 80.0323 39.5114 75.6875 41.625C73.7703 44.3232 72.8676 46.8189 72 50C71.67 50 71.34 50 71 50C71 47.69 71 45.38 71 43C71.66 43 72.32 43 73 43C73.6871 40.5094 74 38.6211 74 36Z" fill="#3C4B22"/>
<path d="M125 36C131.6 36 138.2 36 145 36C145 36.99 145 37.98 145 39C138.565 39.495 138.565 39.495 132 40C132 39.34 132 38.68 132 38C129.03 37.505 129.03 37.505 126 37C126 46.57 126 56.14 126 66C125.67 66 125.34 66 125 66C125 56.1 125 46.2 125 36Z" fill="#3C4B22"/>
<path d="M42 24C43.4848 24.396 44.9629 24.8175 46.4375 25.25C47.2612 25.482 48.0849 25.7141 48.9336 25.9531C51 27 51 27 51.8477 28.9844C52 31 52 31 51 33C49.2062 32.5501 47.415 32.0898 45.625 31.625C44.6273 31.3698 43.6295 31.1145 42.6016 30.8516C40 30 40 30 38 28C38.66 28 39.32 28 40 28C40.66 26.68 41.32 25.36 42 24Z" fill="#3C4B22"/>
<path d="M27 36C28.32 36 29.64 36 31 36C29.0638 42.2048 26.7439 48.1083 24 54C23 51 23 51 23 49C22.34 48.67 21.68 48.34 21 48C22.98 44.04 24.96 40.08 27 36Z" fill="#3C4B22"/>
<path d="M79 30C78.625 31.9375 78.625 31.9375 78 34C74.6901 35.655 71.0088 35.1008 67.375 35.0625C66.5732 35.058 65.7714 35.0535 64.9453 35.0488C62.9635 35.037 60.9817 35.0191 59 35C59 34.67 59 34.34 59 34C59.9571 33.9265 59.9571 33.9265 60.9336 33.8516C61.7599 33.7768 62.5862 33.702 63.4375 33.625C64.2612 33.5554 65.0849 33.4858 65.9336 33.4141C66.6155 33.2774 67.2974 33.1408 68 33C68.33 32.34 68.66 31.68 69 31C68.01 31.33 67.02 31.66 66 32C66 31.34 66 30.68 66 30C67.7909 29.8053 69.5828 29.6195 71.375 29.4375C72.8716 29.2809 72.8716 29.2809 74.3984 29.1211C77 29 77 29 79 30Z" fill="#3C4B22"/>
<path d="M43.625 35.9375C44.8509 35.951 44.8509 35.951 46.1016 35.9648C47.0413 35.9822 47.0413 35.9822 48 36C47.67 36.99 47.34 37.98 47 39C44.03 39 41.06 39 38 39C38 39.66 38 40.32 38 41C36.35 41 34.7 41 33 41C36.6717 37.2059 38.334 35.8619 43.625 35.9375Z" fill="#3C4B22"/>
<path d="M122 56C122.33 56.99 122.66 57.98 123 59C120.054 64.6645 120.054 64.6645 116.25 65.875C115.507 65.9163 114.765 65.9575 114 66C114 65.34 114 64.68 114 64C113.34 63.67 112.68 63.34 112 63C113.65 62.34 115.3 61.68 117 61C117.33 61.33 117.66 61.66 118 62C118.66 60.68 119.32 59.36 120 58C120.66 58 121.32 58 122 58C122 57.34 122 56.68 122 56Z" fill="#3C4B22"/>
<path d="M83 36C86.8091 36.3242 88.7837 36.8558 92 39C91.67 39.99 91.34 40.98 91 42C87.3312 41.2945 84.2955 39.7226 81 38C81.66 37.34 82.32 36.68 83 36Z" fill="#3C4B22"/>
<path d="M62.875 29.875C66 30 66 30 69 31C68.67 31.99 68.34 32.98 68 34C65.03 34 62.06 34 59 34C59 30.0435 59 30.0435 62.875 29.875Z" fill="#3C4B22"/>
<path d="M42 24C43.98 24.66 45.96 25.32 48 26C47.01 26.33 46.02 26.66 45 27C43.7912 29.0002 43.7912 29.0002 43 31C40.525 30.01 40.525 30.01 38 29C38.66 28.67 39.32 28.34 40 28C41.1335 25.9833 41.1335 25.9833 42 24Z" fill="#3C4B22"/>
<path d="M85 28C85 29.32 85 30.64 85 32C83.68 32 82.36 32 81 32C81 32.66 81 33.32 81 34C79.68 33.67 78.36 33.34 77 33C77.8125 31.0625 77.8125 31.0625 79 29C82 28 82 28 85 28Z" fill="#3C4B22"/>
<path d="M86 27C87.32 27.33 88.64 27.66 90 28C89.67 28.33 89.34 28.66 89 29C89.99 29.66 90.98 30.32 92 31C86.555 32.485 86.555 32.485 81 34C81 33.34 81 32.68 81 32C81.99 31.34 82.98 30.68 84 30C84.66 29.01 85.32 28.02 86 27Z" fill="#3C4B22"/>
<path d="M123 51C122.744 53.3431 122.407 55.6784 122 58C121.01 58.495 121.01 58.495 120 59C118.866 61.0167 118.866 61.0167 118 63C116.882 59.6447 117.085 59.0291 118.312 55.875C118.577 55.1712 118.841 54.4673 119.113 53.7422C120.054 51.8946 120.789 51 123 51Z" fill="#3C4B22"/>
<path d="M136 63C139.3 63 142.6 63 146 63C146 63.99 146 64.98 146 66C144.35 66.33 142.7 66.66 141 67C141 66.01 141 65.02 141 64C139.35 64 137.7 64 136 64C136 63.67 136 63.34 136 63Z" fill="#3C4B22"/>
<path d="M48 36C50.97 36.495 50.97 36.495 54 37C53.01 37.495 53.01 37.495 52 38C51.3479 40.0246 51.3479 40.0246 51 42C49.68 40.68 48.36 39.36 47 38C47.33 37.34 47.66 36.68 48 36Z" fill="#3C4B22"/>
<path d="M68 62C69.4588 62.1411 70.917 62.288 72.375 62.4375C73.5932 62.5593 73.5932 62.5593 74.8359 62.6836C77 63 77 63 79 64C78.67 64.99 78.34 65.98 78 67C76.518 66.5509 75.0394 66.0904 73.5625 65.625C72.7388 65.3698 71.9151 65.1145 71.0664 64.8516C69 64 69 64 68 62Z" fill="#3C4B22"/>
<path d="M24 47C25.6003 50.2006 24.0317 52.7227 23 56C21.4375 54.75 21.4375 54.75 20 53C20.125 50.9375 20.125 50.9375 21 49C21.99 48.34 22.98 47.68 24 47Z" fill="#3C4B22"/>
<path d="M82 50C83.32 50.33 84.64 50.66 86 51C85.67 51.33 85.34 51.66 85 52C85.66 52.33 86.32 52.66 87 53C87 55.97 87 58.94 87 62C86.67 62 86.34 62 86 62C86 59.36 86 56.72 86 54C84.68 53.67 83.36 53.34 82 53C82 52.01 82 51.02 82 50Z" fill="#3C4B22"/>
<path d="M27 36C28.32 36 29.64 36 31 36C30.34 38.31 29.68 40.62 29 43C28.01 42.34 27.02 41.68 26 41C26.33 39.35 26.66 37.7 27 36Z" fill="#3C4B22"/>
<path d="M89 26C90.65 26.33 92.3 26.66 94 27C94 27.99 94 28.98 94 30C92.02 30 90.04 30 88 30C88.33 28.68 88.66 27.36 89 26Z" fill="#3C4B22"/>
<path d="M38 39C39.65 39 41.3 39 43 39C41.0742 41.4393 39.1991 43.8009 37 46C37.33 43.69 37.66 41.38 38 39Z" fill="#3C4B22"/>
</svg>
